#!OML:ASF F:\VICON\USERDATA\INSTALL\rory3\rory3.ASF
:FULLY-SPECIFIED
:DEGREES
1487
root 2.57981 23.7717 22.2426 -502.873 33.9041 169.818
lowerback -21.9743 -8.18725 -13.248
upperback -16.4122 -5.31891 1.1654
thorax -4.80773 -0.0260867 7.54931
lowerneck -8.35875 3.9082 8.21772
upperneck 42.3158 11.9962 -4.84721
head 17.972 7.30282 -1.1125
rclavicle 4.25949e-014 -4.58727e-014
rhumerus 92.6409 -36.8773 -51.6756
rradius 57.5202
rwrist -92.3725
rhand -12.7179 4.71379
rfingers 7.12502
rthumb 13.3651 -24.8375
lclavicle 4.25949e-014 -4.58727e-014
lhumerus 63.0536 22.6727 -5.047
lradius 50.6189
lwrist -13.8999
lhand -3.88531 21.4096
lfingers 7.12502
lthumb 21.8641 50.1944
rfemur -218.977 -187.732 189.676
rtibia 39.6308
rfoot 347.448 -393.951
rtoes 53.7347
lfemur -1.40796 -11.5112 -21.1587
ltibia 33.6482
lfoot 35.9341 33.2836
ltoes 12.8841
1488
root 2.57986 23.7348 22.3337 -503.394 31.2119 168.396
lowerback -21.4311 -8.71981 -13.6126
upperback -16.4824 -5.95704 0.751919
thorax -5.02596 -0.278151 7.16698
lowerneck -8.17453 3.4335 7.69529
upperneck 42.5177 11.2988 -4.30094
head 17.8635 7.05714 -0.898098
rclavicle -1.00938e-014 6.29402e-014
rhumerus 88.3191 -37.6257 -45.9422
rradius 58.1805
rwrist -90.7798
rhand -17.9482 11.5235
rfingers 7.12502
rthumb 8.32037 -18.2926
lclavicle -1.00938e-014 6.29402e-014
lhumerus 62.8662 22.2651 -4.66256
lradius 50.2785
lwrist -13.9698
lhand -2.89914 21.0412
lfingers 7.12502
lthumb 22.8108 49.7124
rfemur -219.977 -188.14 188.197
rtibia 38.0572
rfoot 343.087 -393.875
rtoes 54.0074
lfemur 0.995566 -12.4342 -19.9159
ltibia 32.8401
lfoot 36.0859 34.3829
ltoes 12.607
1489
root 2.57546 23.6778 22.4295 -503.572 28.2714 167.298
lowerback -20.9228 -9.26596 -13.6602
upperback -16.56 -6.66264 0.441249
thorax -5.2342 -0.583229 6.71544
lowerneck -8.18816 3.03504 7.27325
upperneck 42.7623 10.6577 -3.71831
head 17.8564 6.84222 -0.660475
rclavicle 2.94419e-014 9.39755e-014
rhumerus 89.5397 -38.0625 -47.8589
rradius 57.818
rwrist -90.2112
rhand -16.3084 5.66018
rfingers 7.12502
rthumb 9.90262 -24.0869
lclavicle 2.94419e-014 9.39755e-014
lhumerus 62.4211 21.7663 -4.75765
lradius 49.8788
lwrist -13.4573
lhand -4.0445 21.3358
lfingers 7.12502
lthumb 21.7112 50.1383
rfemur -220.849 -188.325 186.959
rtibia 36.4778
rfoot 337.242 -392.844
rtoes 55.5928
lfemur 3.06597 -13.1822 -18.1019
ltibia 32.2308
lfoot 35.2917 36.257
ltoes 14.6539
1490
root 2.56834 23.6081 22.54 -503.744 25.5552 165.722
lowerback -20.4366 -9.91159 -14.1612
upperback -16.5979 -7.39606 -0.105442
thorax -5.38782 -0.864973 6.24248
lowerneck -8.60428 2.75154 7.46221
upperneck 43.1148 10.1312 -3.37104
head 18.1109 6.72598 -0.590326
rclavicle 5.47993e-014 5.1684e-015
rhumerus 87.694 -38.8184 -45.7495
rradius 57.3643
rwrist -89.7631
rhand -16.5545 8.68597
rfingers 7.12502
rthumb 9.66522 -21.0723
lclavicle 5.47993e-014 5.1684e-015
lhumerus 62.1758 21.3823 -4.88521
lradius 49.3762
lwrist -13.3805
lhand -6.42557 21.9221
lfingers 7.12502
lthumb 19.4232 50.972
rfemur -221.745 -188.327 185.016
rtibia 34.9098
rfoot 330.385 -390.572
rtoes 57.781
lfemur 4.58331 -13.7459 -16.5647
ltibia 31.7943
lfoot 32.965 39.1818
ltoes 19.752
1491
root 2.5631 23.524 22.6575 -503.961 23.3007 163.984
lowerback -19.8606 -10.5091 -15.0661
upperback -16.63 -8.01358 -0.724775
thorax -5.58996 -1.04242 5.93686
lowerneck -9.06713 2.49365 8.16714
upperneck 43.4054 9.71594 -3.53087
head 18.44 6.67759 -0.823958
rclavicle -8.34896e-015 5.26779e-014
rhumerus 86.3281 -39.6343 -44.225
rradius 56.7973
rwrist -88.9828
rhand -16.7387 9.97071
rfingers 7.12502
rthumb 9.48745 -19.7957
lclavicle -8.34896e-015 5.26779e-014
lhumerus 62.0746 21.0691 -4.70697
lradius 49.0217
lwrist -13.5293
lhand -7.74687 22.0904
lfingers 7.12502
lthumb 18.1524 51.2634
rfemur -222.469 -188.749 182.406
rtibia 33.2592
rfoot 323.425 -387.181
rtoes 59.8077
lfemur 5.76978 -14.1225 -15.4189
ltibia 31.5786
lfoot 30.4787 41.7294
ltoes 23.5291
1492
root 2.54835 23.4182 22.7363 -504.201 20.6315 162.673
lowerback -19.3307 -11.0651 -15.2384
upperback -16.6803 -8.71216 -1.09912
thorax -5.80282 -1.32159 5.49936
lowerneck -9.15057 2.14626 8.1212
upperneck 43.6876 9.29987 -3.43475
head 18.5837 6.56562 -0.82411
rclavicle -7.6265e-014 -3.12092e-014
rhumerus 84.9245 -39.9699 -42.4334
rradius 56.4372
rwrist -88.1839
rhand -17.4805 11.0941
rfingers 7.12502
rthumb 8.77173 -18.7036
lclavicle -7.6265e-014 -3.12092e-014
lhumerus 61.5476 20.4842 -4.69713
lradius 48.5931
lwrist -13.5316
lhand -7.9509 21.6061
lfingers 7.12502
lthumb 17.9561 50.7972
rfemur -222.303 -188.712 180.52
rtibia 31.5426
rfoot 318.74 -383.9
rtoes 60.8573
lfemur 7.11858 -14.6665 -13.8357
ltibia 31.5334
lfoot 28.0009 43.4944
ltoes 25.485
1493
root 2.53163 23.3024 22.7961 -503.97 17.0725 162.183
lowerback -19.1637 -11.5926 -14.2598
upperback -16.6575 -9.50108 -1.19848
thorax -5.81345 -1.77271 4.72212
lowerneck -8.94283 1.80899 7.56313
upperneck 43.6854 8.86376 -3.11954
head 18.4156 6.3779 -0.659911
rclavicle -2.1183e-014 -8.74653e-015
rhumerus 83.6333 -40.1422 -40.6453
rradius 56.0688
rwrist -87.1223
rhand -17.9299 12.2285
rfingers 7.12502
rthumb 8.33799 -17.587
lclavicle -2.1183e-014 -8.74653e-015
lhumerus 60.8155 19.9709 -4.70059
lradius 48.2811
lwrist -13.665
lhand -8.17815 21.2373
lfingers 7.12502
lthumb 17.7374 50.4483
rfemur -221.658 -189.017 179.61
rtibia 29.6636
rfoot 314.101 -379.957
rtoes 61.7713
lfemur 7.96288 -15.1674 -10.7511
ltibia 31.7291
lfoot 25.4488 44.7291
ltoes 27.3872
1494
root 2.52734 23.1772 22.8804 -503.606 13.919 161.254
lowerback -19.1322 -12.1891 -14.0325
upperback -16.4495 -10.226 -1.46132
thorax -5.52459 -2.15577 4.1493
lowerneck -8.79851 1.61879 7.27464
upperneck 43.0853 8.37642 -2.96082
head 17.9293 6.12712 -0.655291
rclavicle 2.81218e-014 9.34288e-015
rhumerus 82.6402 -40.8194 -39.2226
rradius 55.6552
rwrist -85.9185
rhand -17.8708 12.6183
rfingers 7.12502
rthumb 8.39506 -17.1948
lclavicle 2.81218e-014 9.34288e-015
lhumerus 60.6033 20.0262 -4.10395
lradius 47.8768
lwrist -14.6354
lhand -8.62784 21.0181
lfingers 7.12502
lthumb 17.3047 50.2677
rfemur -221.218 -190.3 177.581
rtibia 27.6938
rfoot 308.543 -375.676
rtoes 62.5263
lfemur 8.16669 -15.347 -7.9406
ltibia 31.9139
lfoot 23.2853 45.8433
ltoes 29.1178
1495
root 2.53297 23.0405 22.9823 -503.028 10.9776 160.31
lowerback -18.9561 -12.8751 -14.0513
upperback -16.4608 -11.0322 -1.55635
thorax -5.50328 -2.49581 3.88484
lowerneck -8.71441 1.30412 6.63003
upperneck 42.9181 7.81658 -2.48225
head 17.687 5.86625 -0.427876
rclavicle 4.48632e-014 6.75868e-014
rhumerus 82.0789 -41.3476 -38.3537
rradius 55.1225
rwrist -84.9523
rhand -17.0609 12.0334
rfingers 7.12502
rthumb 9.17659 -17.747
lclavicle 4.48632e-014 6.75868e-014
lhumerus 60.0294 19.8557 -3.97331
lradius 47.5139
lwrist -15.318
lhand -9.17476 20.784
lfingers 7.12502
lthumb 16.7782 50.079
rfemur -220.921 -192.208 175.141
rtibia 25.6723
rfoot 302.51 -370.985
rtoes 62.9908
lfemur 7.90139 -15.3059 -5.06415
ltibia 32.168
lfoot 18.017 48.0577
ltoes 33.5703
1496
root 2.51621 22.8837 23.0632 -503.557 8.60157 159.844
lowerback -18.0628 -12.9949 -13.92
upperback -16.2801 -11.4263 -1.66238
thorax -5.70932 -2.72574 3.73115
lowerneck -8.38013 0.959311 5.8659
upperneck 42.7622 7.40217 -2.20563
head 17.4167 5.64243 -0.250026
rclavicle -4.76276e-014 2.88238e-015
rhumerus 81.6479 -41.671 -37.5407
rradius 54.6195
rwrist -84.2645
rhand -15.6716 10.9644
rfingers 7.12502
rthumb 10.517 -18.7525
lclavicle -4.76276e-014 2.88238e-015
lhumerus 59.1743 19.445 -3.88761
lradius 47.1003
lwrist -15.739
lhand -9.59346 20.5481
lfingers 7.12502
lthumb 16.3751 49.8768
rfemur -219.443 -194.032 173.689
rtibia 23.8048
rfoot 298.254 -367.712
rtoes 63.1355
lfemur 9.33561 -15.7929 -3.11214
ltibia 32.3292
lfoot 12.8861 49.6049
ltoes 36.9401
